<svg version="1.2" baseProfile="tiny-ps" xmlns="http://www.w3.org/2000/svg" viewBox="0 0 289 142" width="289" height="142">
	<title>New Project</title>
	<style>
		tspan { white-space:pre }
		.shp0 { fill: #c6a67f } 
		.shp1 { fill: #9b8064 } 
	</style>
	<g id="Group 70">
		<g id="Group 67">
			<g id="Group 65">
				<g id="Group 62">
					<path id="Path 37" class="shp0" d="M123.91 27.09C123.87 27.03 123.85 26.99 123.85 26.99L123.85 27.02C120.57 23.01 117.67 21.7 113.12 21.55C107.54 21.37 105.22 24.1 105.22 24.1C118.84 19.57 123.59 43.07 133.4 55.14C133.43 55.19 133.46 55.23 133.46 55.23L133.46 55.21C136.74 59.21 139.64 60.52 144.19 60.67C149.77 60.85 152.08 58.13 152.08 58.13C138.47 62.65 133.72 39.16 123.91 27.09Z" />
					<path id="Path 38" class="shp1" d="M133.4 55.14C133.43 55.19 133.46 55.23 133.46 55.23L133.46 55.21C136.74 59.21 139.64 60.52 144.19 60.67C149.77 60.85 152.08 58.13 152.08 58.13C135.9 65.62 130.4 42.88 122.93 30.77C115.46 18.66 105.22 24.1 105.22 24.1C118.84 19.57 123.59 43.07 133.4 55.14Z" />
				</g>
				<g id="Group 63">
					<path id="Path 39" class="shp0" d="M139.58 27.05C139.55 26.99 139.53 26.96 139.53 26.96L139.53 26.98C136.25 22.97 133.34 21.66 128.8 21.52C123.22 21.34 120.9 24.06 120.9 24.06C134.52 19.54 139.26 43.03 149.08 55.1C149.11 55.16 149.13 55.2 149.13 55.2L149.13 55.17C152.41 59.18 155.31 60.49 159.86 60.63C165.44 60.82 167.76 58.09 167.76 58.09C154.14 62.61 149.4 39.12 139.58 27.05Z" />
					<path id="Path 40" class="shp1" d="M149.08 55.1C149.11 55.16 149.13 55.2 149.13 55.2L149.13 55.17C152.41 59.18 155.31 60.49 159.86 60.63C165.44 60.82 167.76 58.09 167.76 58.09C151.58 65.58 146.08 42.84 138.6 30.73C131.13 18.62 120.9 24.06 120.9 24.06C134.52 19.54 139.26 43.03 149.08 55.1Z" />
				</g>
				<g id="Group 64">
					<path id="Path 41" class="shp0" d="M155.26 27.01C155.22 26.96 155.2 26.92 155.2 26.92L155.2 26.95C151.92 22.94 149.02 21.63 144.47 21.48C138.89 21.3 136.57 24.02 136.57 24.02C150.19 19.5 154.94 42.99 164.75 55.07C164.78 55.12 164.8 55.16 164.8 55.16L164.81 55.13C168.09 59.14 170.99 60.45 175.54 60.6C181.12 60.78 183.43 58.06 183.43 58.06C169.82 62.58 165.07 39.09 155.26 27.01Z" />
					<path id="Path 42" class="shp1" d="M164.75 55.07C164.78 55.12 164.8 55.16 164.8 55.16L164.81 55.13C168.09 59.14 170.99 60.45 175.54 60.6C181.12 60.78 183.43 58.06 183.43 58.06C167.25 65.55 161.75 42.8 154.28 30.7C146.81 18.59 136.57 24.02 136.57 24.02C150.19 19.5 154.94 42.99 164.75 55.07Z" />
				</g>
			</g>
			<g id="Group 66">
				<path id="Path 43" class="shp0" d="M160.44 63.33C160.22 63.33 160 63.33 159.78 63.32C159.48 63.31 159.19 63.29 158.91 63.27C154.73 66 149.75 67.6 144.39 67.62C129.68 67.65 117.68 55.74 117.65 41.07C117.64 38.89 117.91 36.77 118.4 34.73C117.76 33.67 117.11 32.67 116.45 31.75C115.47 34.68 114.94 37.82 114.95 41.08C114.99 57.26 128.17 70.34 144.4 70.31C151.81 70.29 158.57 67.53 163.73 63C162.76 63.2 161.67 63.33 160.44 63.33Z" />
				<path id="Path 44" class="shp0" d="M128.22 18.82C128.44 18.82 128.66 18.82 128.88 18.83C129.11 18.84 129.33 18.85 129.56 18.86C133.77 16.06 138.83 14.41 144.27 14.4C158.98 14.37 170.98 26.27 171.01 40.95C171.02 43.16 170.74 45.32 170.23 47.38C170.87 48.44 171.52 49.44 172.17 50.35C173.17 47.4 173.72 44.23 173.71 40.94C173.67 24.76 160.49 11.67 144.26 11.71C136.75 11.73 129.91 14.55 124.73 19.19C125.75 18.96 126.91 18.82 128.22 18.82Z" />
			</g>
		</g>
		<g id="Group 68">
			<path id="Path 45" class="shp0" d="M7.34 104.21C7.25 104.43 7.23 104.62 7.29 104.77C7.35 104.93 7.44 105.05 7.57 105.13C7.71 105.21 7.84 105.25 7.97 105.25L8.12 105.25L8.12 105.42L4.63 105.43L4.63 105.26L4.78 105.26C5.03 105.26 5.29 105.18 5.57 105.02C5.84 104.86 6.06 104.59 6.24 104.21L7.34 104.21ZM10.89 93.49L10.98 95.23L6.86 105.37L5.73 105.38L10 95.51C10.02 95.47 10.07 95.36 10.14 95.19C10.21 95.02 10.3 94.82 10.39 94.6C10.48 94.38 10.56 94.17 10.63 93.96C10.7 93.75 10.73 93.6 10.74 93.49L10.89 93.49ZM12.86 101.26L12.86 101.89L7.85 101.9L7.85 101.27L12.86 101.26ZM10.89 93.49L16.19 105.3L13.72 105.31L10.12 96.15L10.89 93.49ZM13.28 104.19L15.68 104.19C15.86 104.57 16.09 104.83 16.36 104.99C16.63 105.15 16.9 105.23 17.15 105.23L17.29 105.23L17.29 105.4L12.51 105.41L12.51 105.24L12.65 105.24C12.87 105.24 13.05 105.15 13.22 104.97C13.39 104.78 13.41 104.53 13.28 104.19Z" />
			<path id="Path 46" class="shp0" d="M19.04 94.98L18.99 94.98C18.99 94.69 18.89 94.45 18.68 94.24C18.46 94.04 18.21 93.93 17.93 93.93L17.83 93.93L17.73 93.94L17.71 93.77L19.04 93.77L19.04 94.98ZM19.07 104.18L19.07 105.39L17.74 105.4L17.74 105.23L17.84 105.23L17.95 105.23C18.24 105.23 18.49 105.13 18.69 104.92C18.9 104.72 19.01 104.47 19.02 104.18L19.07 104.18ZM21.02 93.76L21.05 105.39L19.02 105.39L18.99 93.77L21.02 93.76ZM22.86 93.76C23.73 93.76 24.46 93.89 25.03 94.16C25.6 94.43 26.03 94.8 26.32 95.28C26.61 95.75 26.77 96.31 26.78 96.94C26.79 97.49 26.69 97.99 26.49 98.43C26.28 98.88 26 99.25 25.64 99.55C25.28 99.85 24.88 100.07 24.43 100.21C23.98 100.35 23.51 100.39 23.02 100.33C22.53 100.27 22.06 100.1 21.6 99.82L21.6 99.66C21.9 99.68 22.18 99.67 22.42 99.63C22.66 99.59 22.92 99.51 23.19 99.4C23.47 99.28 23.72 99.09 23.95 98.83C24.18 98.57 24.36 98.22 24.48 97.79C24.53 97.65 24.56 97.49 24.57 97.31C24.59 97.13 24.59 96.96 24.58 96.79C24.57 96.06 24.37 95.48 23.99 95.04C23.61 94.61 23.08 94.39 22.39 94.39L20.97 94.39C20.92 94.18 20.86 93.97 20.81 93.76L22.86 93.76ZM21 104.18L21.05 104.18C21.06 104.47 21.17 104.71 21.37 104.92C21.58 105.12 21.83 105.22 22.12 105.22L22.33 105.22L22.33 105.39L21 105.39L21 104.18Z" />
			<path id="Path 47" class="shp0" d="M29.46 94.95L29.41 94.95C29.39 94.67 29.28 94.42 29.08 94.22C28.87 94.01 28.63 93.91 28.34 93.91L28.12 93.91L28.12 93.75L29.45 93.74L29.46 94.95ZM29.48 104.16L29.48 105.37L28.15 105.37L28.15 105.21L28.36 105.21C28.65 105.21 28.9 105.1 29.1 104.9C29.31 104.69 29.42 104.45 29.43 104.16L29.48 104.16ZM31.43 93.74L31.46 105.37L29.43 105.37L29.4 93.74L31.43 93.74ZM36 93.73L36 94.38L31.39 94.39L31.39 93.74L36 93.73ZM35.23 99.31L35.23 99.94L31.4 99.95L31.4 99.32L35.23 99.31ZM35.87 104.71L36.16 105.35L31.41 105.37L31.41 104.72L35.87 104.71ZM37.03 102.2L36.21 105.35L33.09 105.36L33.69 104.71C34.26 104.71 34.75 104.61 35.16 104.4C35.57 104.2 35.91 103.9 36.19 103.52C36.46 103.14 36.69 102.7 36.87 102.2L37.03 102.2ZM35.23 97.92L35.23 99.34L33.85 99.35L33.85 99.31C34.19 99.3 34.48 99.18 34.71 98.95C34.94 98.71 35.06 98.42 35.06 98.08L35.06 97.92L35.23 97.92ZM35.23 99.91L35.23 101.34L35.07 101.34L35.07 101.15C35.07 100.81 34.95 100.52 34.71 100.29C34.48 100.06 34.19 99.94 33.85 99.94L33.85 99.91L35.23 99.91ZM36 93.43L36 93.91L33.97 93.73C34.21 93.73 34.47 93.71 34.74 93.68C35.01 93.65 35.27 93.61 35.5 93.56C35.73 93.52 35.9 93.47 36 93.43ZM36 94.33L36 96.05L35.84 96.05L35.84 95.82C35.84 95.4 35.7 95.05 35.43 94.78C35.17 94.51 34.81 94.37 34.37 94.36L34.37 94.33L36 94.33Z" />
			<path id="Path 48" class="shp0" d="M49.31 100.47L49.35 103.25C49.09 103.68 48.75 104.07 48.33 104.42C47.91 104.77 47.4 105.05 46.8 105.26C46.19 105.46 45.48 105.57 44.67 105.57C43.38 105.56 42.25 105.31 41.27 104.83C40.29 104.34 39.53 103.65 38.99 102.75C38.45 101.85 38.18 100.77 38.18 99.52C38.18 98.29 38.44 97.22 38.97 96.32C39.5 95.42 40.25 94.72 41.23 94.22C42.21 93.73 43.37 93.48 44.71 93.47C45.58 93.47 46.35 93.57 47.04 93.76C47.73 93.95 48.32 94.18 48.79 94.45L48.93 97.12L48.78 97.12C48.5 96.07 48.01 95.3 47.3 94.82C46.6 94.34 45.77 94.1 44.83 94.11C43.92 94.11 43.13 94.33 42.47 94.77C41.81 95.21 41.3 95.83 40.94 96.63C40.58 97.44 40.41 98.38 40.41 99.48C40.41 100.58 40.59 101.53 40.94 102.35C41.29 103.16 41.79 103.79 42.43 104.24C43.07 104.68 43.81 104.92 44.67 104.94C45.5 104.93 46.23 104.79 46.84 104.51C47.46 104.22 47.96 103.75 48.36 103.1C48.75 102.45 49.02 101.57 49.17 100.47L49.31 100.47Z" />
			<path id="Path 49" fill-rule="evenodd" class="shp0" d="M54.38 105.31L54.38 105.15L54.65 105.15C54.95 105.15 55.21 105.05 55.45 104.87C55.68 104.69 55.82 104.43 55.86 104.1L55.86 104.1L57.17 93.45L57.34 93.45L62.33 102.38L67.15 93.42L67.3 93.42L68.7 104.07L68.7 104.07C68.76 104.4 68.9 104.66 69.13 104.84C69.36 105.02 69.62 105.11 69.92 105.11L70.19 105.11L70.19 105.28L65.64 105.29L65.64 105.14L65.89 105.14C66.08 105.14 66.24 105.06 66.36 104.91C66.48 104.76 66.54 104.6 66.54 104.42L66.54 104.34L66.54 104.34L65.85 97.71L62.61 103.8C62.41 104.19 62.26 104.52 62.16 104.8C62.06 105.07 62.01 105.34 62 105.59L61.83 105.6L57.55 97.78L56.88 104.36L56.76 104.36L56.76 105.31L54.38 105.31ZM56.78 105.31L56.88 104.36L56.88 104.36L56.88 104.44C56.88 104.62 56.94 104.78 57.07 104.93C57.2 105.08 57.35 105.16 57.53 105.16L57.78 105.16L57.78 105.3L56.78 105.31Z" />
			<path id="Path 50" class="shp0" d="M72.5 104.06C72.41 104.28 72.4 104.47 72.45 104.62C72.51 104.78 72.61 104.9 72.74 104.98C72.87 105.06 73.01 105.1 73.14 105.1L73.29 105.1L73.29 105.27L69.79 105.28L69.79 105.11L69.94 105.11C70.2 105.11 70.46 105.03 70.73 104.87C71 104.71 71.23 104.44 71.4 104.06L72.5 104.06ZM76.06 93.34L76.15 95.08L72.02 105.22L70.89 105.23L75.17 95.37C75.19 95.32 75.23 95.21 75.31 95.04C75.38 94.87 75.46 94.67 75.55 94.45C75.65 94.23 75.73 94.02 75.79 93.81C75.86 93.61 75.9 93.45 75.91 93.34L76.06 93.34ZM78.03 101.11L78.03 101.74L73.01 101.75L73.01 101.12L78.03 101.11ZM76.06 93.34L81.35 105.15L78.89 105.16L75.28 96L76.06 93.34ZM78.45 104.04L80.85 104.04C81.03 104.42 81.25 104.68 81.53 104.84C81.8 105 82.06 105.08 82.32 105.08L82.45 105.08L82.45 105.25L77.67 105.26L77.67 105.09L77.82 105.09C78.03 105.09 78.22 105 78.38 104.82C78.55 104.63 78.57 104.38 78.45 104.04Z" />
			<path id="Path 51" fill-rule="evenodd" class="shp0" d="M82.65 105.25L82.65 105.08L82.97 105.08C83.24 105.08 83.48 104.98 83.68 104.78C83.88 104.58 83.98 104.34 83.98 104.07L83.96 95.44C83.96 94.85 83.9 94.15 83.77 93.37L83.94 93.37L92.6 101.87L92.59 94.78C92.58 94.49 92.47 94.25 92.28 94.06C92.08 93.86 91.84 93.76 91.55 93.77L91.24 93.77L91.24 93.6L95.73 93.59L95.73 93.76L95.43 93.76C95.16 93.76 94.92 93.86 94.72 94.05C94.52 94.24 94.41 94.48 94.4 94.77L94.42 103.33C94.42 103.73 94.44 104.09 94.48 104.41C94.51 104.73 94.55 105.08 94.61 105.45L94.46 105.45L85.8 96.97L85.83 104.06L85.78 104.06L85.78 105.24L82.65 105.25ZM85.83 105.24L85.83 104.06L85.83 104.06C85.83 104.34 85.93 104.58 86.13 104.77C86.33 104.97 86.57 105.07 86.85 105.07L87.16 105.07L87.16 105.24L85.83 105.24Z" />
			<path id="Path 52" class="shp0" d="M98.22 94.8L98.17 94.8C98.17 94.51 98.06 94.26 97.85 94.06C97.64 93.85 97.39 93.75 97.1 93.75L96.9 93.75L96.88 93.59L98.22 93.58L98.22 94.8ZM98.24 104L98.24 105.21L96.91 105.21L96.91 105.05L97.13 105.05C97.41 105.05 97.66 104.94 97.87 104.74C98.07 104.53 98.18 104.29 98.19 104L98.24 104ZM100.2 93.58L100.22 105.21L98.19 105.21L98.17 93.58L100.2 93.58ZM102.8 93.57C104.06 93.57 105.16 93.8 106.1 94.27C107.04 94.74 107.77 95.41 108.28 96.29C108.8 97.16 109.05 98.19 109.06 99.37C109.06 100.56 108.81 101.59 108.3 102.46C107.79 103.33 107.07 104 106.13 104.48C105.19 104.96 104.09 105.2 102.82 105.2L98.99 105.21L98.97 104.58L99.76 104.58L100.75 104.58L101.7 104.57L102.69 104.57C103.54 104.57 104.28 104.35 104.89 103.93C105.51 103.5 105.99 102.9 106.33 102.12C106.67 101.35 106.84 100.43 106.84 99.38C106.84 98.33 106.66 97.41 106.32 96.64C105.97 95.86 105.49 95.27 104.86 94.84C104.24 94.42 103.51 94.2 102.66 94.21L101.62 94.21L100.63 94.21L99.61 94.21L98.78 94.21L98.78 93.58L102.8 93.57Z" />
			<path id="Path 53" class="shp0" d="M111.58 103.97C111.49 104.19 111.48 104.38 111.53 104.53C111.59 104.69 111.68 104.81 111.82 104.89C111.95 104.97 112.08 105.01 112.22 105.01L112.37 105.01L112.37 105.18L108.87 105.19L108.87 105.02L109.02 105.02C109.28 105.02 109.54 104.94 109.81 104.78C110.08 104.62 110.31 104.35 110.48 103.97L111.58 103.97ZM115.14 93.25L115.23 94.99L111.1 105.13L109.97 105.14L114.24 95.28C114.27 95.23 114.31 95.12 114.39 94.95C114.46 94.78 114.54 94.58 114.63 94.36C114.73 94.14 114.81 93.93 114.87 93.72C114.94 93.52 114.98 93.36 114.99 93.25L115.14 93.25ZM117.11 101.02L117.11 101.65L112.09 101.66L112.09 101.03L117.11 101.02ZM115.14 93.25L120.43 105.06L117.97 105.07L114.36 95.91L115.14 93.25ZM117.53 103.95L119.93 103.95C120.11 104.33 120.33 104.59 120.6 104.75C120.88 104.91 121.14 104.99 121.4 104.99L121.53 104.99L121.53 105.16L116.75 105.17L116.75 105L116.9 105C117.11 105 117.3 104.91 117.46 104.73C117.63 104.54 117.65 104.29 117.53 103.95Z" />
			<path id="Path 54" class="shp0" d="M123.25 94.74L123.21 94.74C123.19 94.45 123.08 94.21 122.88 94C122.67 93.8 122.42 93.69 122.14 93.7L121.92 93.7L121.92 93.53L123.25 93.53L123.25 94.74ZM123.28 103.94L123.28 105.15L121.95 105.16L121.95 104.99L122.16 104.99C122.45 104.99 122.7 104.89 122.9 104.68C123.11 104.48 123.22 104.23 123.23 103.94L123.28 103.94ZM125.23 93.52L125.26 105.15L123.23 105.15L123.2 93.53L125.23 93.52ZM125.19 94.73L125.18 93.52L126.52 93.52L126.52 93.69L126.3 93.69C126.01 93.69 125.77 93.79 125.56 94C125.35 94.2 125.25 94.45 125.24 94.73L125.19 94.73ZM129.67 104.49L129.96 105.14L125.21 105.15L125.21 104.5L129.67 104.49ZM130.83 101.98L130.01 105.14L126.89 105.15L127.49 104.5C128.06 104.5 128.55 104.39 128.96 104.19C129.37 103.98 129.71 103.69 129.99 103.3C130.26 102.92 130.49 102.48 130.67 101.98L130.83 101.98Z" />
			<path id="Path 55" class="shp0" d="M133.45 103.92C133.37 104.14 133.35 104.33 133.41 104.48C133.46 104.64 133.56 104.76 133.69 104.84C133.82 104.92 133.96 104.96 134.09 104.96L134.24 104.96L134.24 105.13L130.74 105.14L130.74 104.97L130.89 104.97C131.15 104.97 131.41 104.89 131.68 104.73C131.95 104.57 132.18 104.3 132.35 103.92L133.45 103.92ZM137.01 93.2L137.1 94.94L132.97 105.08L131.84 105.09L136.12 95.23C136.14 95.18 136.18 95.07 136.26 94.9C136.33 94.73 136.41 94.53 136.5 94.31C136.6 94.09 136.68 93.88 136.74 93.67C136.81 93.47 136.85 93.31 136.86 93.2L137.01 93.2ZM138.98 100.97L138.98 101.6L133.96 101.61L133.96 100.98L138.98 100.97ZM137.01 93.2L142.3 105.01L139.84 105.02L136.23 95.86L137.01 93.2ZM139.4 103.9L141.8 103.9C141.98 104.28 142.2 104.54 142.48 104.7C142.75 104.86 143.01 104.94 143.27 104.94L143.4 104.94L143.4 105.11L138.62 105.12L138.62 104.95L138.77 104.95C138.98 104.95 139.17 104.86 139.34 104.68C139.5 104.49 139.52 104.24 139.4 103.9Z" />
			<path id="Path 56" class="shp0" d="M149.29 94.68L149.24 94.68C149.23 94.39 149.12 94.15 148.91 93.94C148.71 93.74 148.46 93.63 148.17 93.64L147.96 93.64L147.96 93.47L149.29 93.47L149.29 94.68ZM149.31 103.88L149.31 105.09L147.98 105.1L147.98 104.93L148.2 104.93C148.49 104.93 148.73 104.83 148.94 104.62C149.14 104.42 149.25 104.17 149.26 103.88L149.31 103.88ZM151.27 93.46L151.3 105.09L149.26 105.09L149.24 93.47L151.27 93.46ZM157.3 98.98L157.3 99.61L151.12 99.63L151.12 98.99L157.3 98.98ZM151.22 94.68L151.22 93.46L152.55 93.46L152.55 93.63L152.34 93.63C152.05 93.63 151.8 93.73 151.6 93.94C151.39 94.14 151.28 94.39 151.27 94.67L151.22 94.68ZM151.24 103.88L151.29 103.88C151.31 104.17 151.41 104.41 151.62 104.62C151.83 104.82 152.07 104.92 152.36 104.92L152.58 104.92L152.58 105.09L151.25 105.09L151.24 103.88ZM157.19 94.66L157.14 94.66C157.14 94.37 157.03 94.13 156.82 93.92C156.61 93.72 156.36 93.62 156.07 93.62L155.85 93.62L155.85 93.45L157.18 93.45L157.19 94.66ZM157.21 103.86L157.21 105.08L155.88 105.08L155.88 104.91L156.09 104.91C156.38 104.91 156.63 104.81 156.84 104.6C157.05 104.4 157.16 104.15 157.16 103.86L157.21 103.86ZM159.17 93.44L159.19 105.07L157.16 105.08L157.13 93.45L159.17 93.44ZM159.12 94.66L159.12 93.44L160.45 93.44L160.45 93.61L160.23 93.61C159.94 93.61 159.7 93.71 159.49 93.92C159.29 94.12 159.18 94.37 159.17 94.66L159.12 94.66ZM159.14 103.86L159.19 103.86C159.2 104.15 159.31 104.39 159.52 104.6C159.72 104.8 159.97 104.9 160.26 104.9L160.48 104.9L160.48 105.07L159.14 105.07L159.14 103.86Z" />
			<path id="Path 57" fill-rule="evenodd" class="shp0" d="M168.19 93.19C169.47 93.19 170.59 93.43 171.55 93.92C172.51 94.41 173.26 95.11 173.78 96.02C174.3 96.93 174.57 97.99 174.57 99.22C174.57 100.45 174.32 101.52 173.8 102.43C173.28 103.34 172.54 104.04 171.58 104.54C170.62 105.03 169.5 105.28 168.22 105.28C166.93 105.29 165.81 105.04 164.85 104.55C163.9 104.06 163.16 103.36 162.64 102.46C162.11 101.55 161.85 100.48 161.84 99.25C161.84 98.02 162.1 96.95 162.62 96.04C163.14 95.14 163.88 94.43 164.83 93.94C165.78 93.44 166.91 93.19 168.19 93.19ZM168.22 104.65C169.05 104.65 169.78 104.43 170.39 103.98C171.01 103.54 171.48 102.91 171.82 102.1C172.16 101.29 172.32 100.34 172.32 99.23C172.32 98.12 172.15 97.16 171.81 96.36C171.47 95.55 170.99 94.92 170.37 94.48C169.75 94.04 169.03 93.82 168.2 93.82C167.36 93.82 166.64 94.05 166.02 94.49C165.41 94.94 164.93 95.56 164.59 96.37C164.26 97.18 164.09 98.14 164.09 99.25C164.1 100.35 164.27 101.31 164.61 102.12C164.95 102.93 165.43 103.55 166.04 103.99C166.66 104.43 167.39 104.65 168.22 104.65Z" />
			<path id="Path 58" class="shp0" d="M175.19 93.09C175.3 93.14 175.47 93.18 175.7 93.22C175.93 93.27 176.18 93.31 176.46 93.34C176.73 93.37 176.99 93.39 177.22 93.39L175.19 93.57L175.19 93.09ZM185.5 93.37L185.5 94L175.19 94.02L175.19 93.39L185.5 93.37ZM176.81 93.97L176.81 94.02C176.37 94.03 176.03 94.17 175.76 94.44C175.49 94.7 175.36 95.05 175.36 95.48L175.36 95.7L175.2 95.72L175.19 93.97L176.81 93.97ZM179.41 103.81L179.42 105.03L178.08 105.03L178.08 104.86L178.3 104.86C178.59 104.86 178.83 104.76 179.04 104.55C179.24 104.35 179.35 104.1 179.36 103.81L179.41 103.81ZM181.37 93.44L181.4 105.02L179.37 105.03L179.34 93.45L181.37 93.44ZM181.34 103.81L181.39 103.81C181.41 104.1 181.51 104.34 181.72 104.55C181.93 104.75 182.17 104.85 182.46 104.85L182.68 104.85L182.68 105.02L181.35 105.02L181.34 103.81ZM185.5 93.07L185.5 93.55L183.47 93.37C183.71 93.37 183.97 93.35 184.24 93.32C184.52 93.29 184.77 93.25 185 93.2C185.23 93.16 185.4 93.11 185.5 93.07ZM185.5 93.95L185.51 95.69L185.34 95.68L185.34 95.46C185.34 95.03 185.2 94.68 184.94 94.42C184.67 94.15 184.32 94.01 183.89 94L183.89 93.95L185.5 93.95Z" />
			<path id="Path 59" class="shp0" d="M187.89 94.59L187.84 94.59C187.82 94.3 187.72 94.06 187.51 93.85C187.3 93.65 187.06 93.55 186.77 93.55L186.55 93.55L186.55 93.38L187.88 93.38L187.89 94.59ZM187.91 103.79L187.91 105.01L186.58 105.01L186.58 104.84L186.79 104.84C187.08 104.84 187.33 104.74 187.53 104.53C187.74 104.33 187.85 104.08 187.86 103.79L187.91 103.79ZM189.87 93.37L189.89 105L187.86 105.01L187.83 93.38L189.87 93.37ZM194.43 93.36L194.43 94.01L189.82 94.02L189.82 93.37L194.43 93.36ZM193.66 98.95L193.66 99.58L189.83 99.59L189.83 98.96L193.66 98.95ZM194.31 104.34L194.59 104.99L189.84 105L189.84 104.35L194.31 104.34ZM195.47 101.83L194.64 104.99L191.53 105L192.12 104.35C192.69 104.35 193.18 104.24 193.59 104.04C194 103.83 194.34 103.54 194.62 103.16C194.9 102.77 195.12 102.33 195.3 101.83L195.47 101.83ZM193.66 97.55L193.66 98.98L192.28 98.98L192.28 98.95C192.62 98.94 192.91 98.82 193.14 98.58C193.38 98.35 193.49 98.06 193.49 97.72L193.49 97.55L193.66 97.55ZM193.66 99.54L193.66 100.97L193.5 100.97L193.5 100.79C193.5 100.45 193.38 100.16 193.15 99.93C192.91 99.7 192.62 99.58 192.28 99.58L192.28 99.55L193.66 99.54ZM194.43 93.06L194.43 93.55L192.4 93.37C192.64 93.37 192.9 93.35 193.17 93.32C193.44 93.28 193.7 93.24 193.93 93.2C194.16 93.15 194.33 93.11 194.43 93.06ZM194.43 93.96L194.44 95.69L194.27 95.69L194.27 95.46C194.27 95.04 194.13 94.69 193.87 94.42C193.6 94.15 193.24 94.01 192.8 94L192.8 93.97L194.43 93.96Z" />
			<path id="Path 60" class="shp0" d="M198 94.57L197.95 94.57C197.94 94.28 197.83 94.03 197.62 93.83C197.42 93.63 197.17 93.52 196.88 93.52L196.66 93.52L196.66 93.36L198 93.35L198 94.57ZM198.02 103.77L198.02 104.98L196.69 104.99L196.69 104.82L196.9 104.82C197.19 104.82 197.44 104.72 197.65 104.51C197.85 104.31 197.96 104.06 197.97 103.77L198.02 103.77ZM199.98 93.35L200 104.98L197.97 104.98L197.94 93.36L199.98 93.35ZM199.93 94.56L199.93 93.35L201.26 93.35L201.26 93.51L201.04 93.51C200.75 93.51 200.51 93.62 200.3 93.82C200.1 94.03 199.99 94.28 199.98 94.56L199.93 94.56ZM204.42 104.32L204.7 104.97L199.95 104.98L199.95 104.33L204.42 104.32ZM205.58 101.81L204.75 104.97L201.64 104.97L202.23 104.33C202.8 104.32 203.29 104.22 203.7 104.02C204.11 103.81 204.45 103.51 204.73 103.13C205.01 102.75 205.23 102.31 205.41 101.81L205.58 101.81Z" />
			<path id="Path 61" class="shp0" d="M221.15 99.28C221.2 99.88 221.19 100.46 221.1 101.03C221.01 101.59 220.85 102.12 220.62 102.61C220.39 103.11 220.07 103.54 219.66 103.91C219.25 104.28 218.74 104.58 218.14 104.79C217.54 105 216.85 105.11 216.05 105.11C215.49 105.11 214.94 105.07 214.4 104.98C213.87 104.89 213.36 104.75 212.89 104.57C212.41 104.38 212 104.14 211.64 103.84C211.27 103.54 210.99 103.18 210.78 102.77C210.58 102.35 210.47 101.87 210.47 101.32C210.47 100.91 210.54 100.54 210.66 100.23C210.79 99.91 210.96 99.63 211.18 99.39C211.39 99.14 211.63 98.94 211.89 98.78C212.15 98.62 212.42 98.48 212.69 98.37C212.96 98.26 213.21 98.18 213.45 98.12L213.73 98.47C213.6 98.58 213.47 98.72 213.33 98.88C213.2 99.04 213.08 99.23 212.97 99.44C212.86 99.66 212.77 99.9 212.7 100.17C212.64 100.45 212.61 100.75 212.64 101.1C212.65 101.64 212.76 102.12 212.97 102.54C213.17 102.96 213.45 103.31 213.79 103.6C214.14 103.89 214.54 104.11 214.99 104.25C215.45 104.4 215.94 104.48 216.46 104.48C217.05 104.47 217.56 104.35 218 104.11C218.44 103.86 218.8 103.55 219.09 103.16C219.38 102.77 219.59 102.34 219.73 101.87C219.87 101.4 219.92 100.93 219.9 100.47C219.88 100.01 219.77 99.59 219.58 99.2C219.46 98.95 219.31 98.76 219.14 98.63C218.96 98.5 218.76 98.44 218.53 98.44L218.28 98.44L218.28 98.28L221.98 98.27L221.98 98.43L221.74 98.43C221.49 98.43 221.32 98.51 221.24 98.67C221.15 98.82 221.12 99.03 221.15 99.28ZM215.87 93.08C216.29 93.08 216.7 93.12 217.1 93.21C217.5 93.3 217.87 93.43 218.21 93.6C218.55 93.77 218.81 93.99 219 94.25L218.51 96.46L218.36 96.46C218.36 95.96 218.27 95.49 218.11 95.08C217.95 94.66 217.71 94.33 217.39 94.08C217.06 93.83 216.65 93.71 216.15 93.71C215.58 93.71 215.1 93.91 214.72 94.31C214.34 94.7 214.16 95.2 214.16 95.79C214.16 96.46 214.4 97.08 214.88 97.67C215.36 98.25 216.04 98.94 216.93 99.72C217.18 99.92 217.45 100.15 217.74 100.42C218.04 100.68 218.35 100.95 218.67 101.23C218.99 101.51 219.3 101.77 219.59 102.01C220.11 102.45 220.6 102.87 221.05 103.25C221.5 103.64 221.93 103.97 222.33 104.23C222.74 104.49 223.13 104.67 223.51 104.76L223.52 104.92C223.16 104.95 222.72 104.96 222.22 104.98C221.71 104.99 221.18 104.93 220.62 104.79C220.06 104.65 219.51 104.39 218.97 104C218.64 103.75 218.3 103.49 217.97 103.21C217.63 102.93 217.3 102.66 216.98 102.4C216.66 102.13 216.37 101.89 216.1 101.66C215.84 101.43 215.6 101.23 215.4 101.06C214.76 100.49 214.18 99.95 213.68 99.43C213.18 98.91 212.79 98.38 212.5 97.82C212.21 97.27 212.06 96.67 212.06 96.01C212.06 95.54 212.16 95.12 212.36 94.75C212.56 94.38 212.83 94.08 213.19 93.84C213.54 93.59 213.95 93.41 214.4 93.28C214.86 93.15 215.35 93.08 215.87 93.08Z" />
			<path id="Path 62" fill-rule="evenodd" class="shp0" d="M231.16 93.05C231.37 93.05 231.62 93.06 231.91 93.08C232.2 93.1 232.49 93.13 232.78 93.17C232.89 93.18 232.99 93.19 233.09 93.21L232.33 93.21L232.33 93.56L234.05 93.56L233.93 95.52L233.76 95.52C233.76 94.95 233.56 94.5 233.15 94.17C232.75 93.84 232.22 93.68 231.58 93.68C230.93 93.68 230.42 93.85 230.04 94.18C229.66 94.51 229.46 94.92 229.45 95.39C229.43 95.67 229.51 95.94 229.69 96.2C229.88 96.46 230.12 96.7 230.44 96.92L233.66 99.29C234.11 99.58 234.45 99.95 234.66 100.37C234.87 100.8 234.97 101.28 234.94 101.81C234.91 102.83 234.55 103.64 233.84 104.24C233.14 104.84 232.18 105.14 230.97 105.14C230.56 105.14 230.14 105.11 229.71 105.04C229.28 104.96 228.89 104.85 228.54 104.71C228.18 104.56 227.9 104.38 227.69 104.17C227.62 103.95 227.59 103.68 227.6 103.36C227.61 103.05 227.66 102.72 227.73 102.38C227.81 102.04 227.9 101.76 228.01 101.53L228.16 101.53C228.12 102.09 228.22 102.6 228.45 103.06C228.68 103.52 229.03 103.88 229.48 104.14C229.93 104.4 230.46 104.52 231.07 104.51C231.76 104.48 232.31 104.29 232.73 103.92C233.14 103.56 233.35 103.09 233.35 102.51C233.35 102.18 233.26 101.88 233.08 101.61C232.9 101.33 232.62 101.09 232.24 100.87L229.22 98.6C228.71 98.27 228.35 97.87 228.13 97.4C227.91 96.93 227.82 96.44 227.85 95.93C227.88 95.4 228.03 94.91 228.3 94.47C228.56 94.04 228.94 93.69 229.42 93.43C229.9 93.18 230.48 93.05 231.16 93.05ZM233.58 93.28C233.81 93.32 233.97 93.36 234.06 93.4L234.05 93.56L234.06 93.56L234.08 93.21L233.09 93.21C233.26 93.23 233.43 93.26 233.58 93.28Z" />
			<path id="Path 63" fill-rule="evenodd" class="shp0" d="M237.22 93.66C237.04 93.51 236.83 93.43 236.59 93.43L236.32 93.43L236.32 93.27L239.47 93.26L239.47 94.26L239.51 94.26L239.52 100.57C239.52 101.36 239.66 102.04 239.94 102.63C240.21 103.21 240.6 103.67 241.1 103.99C241.6 104.31 242.18 104.47 242.85 104.46C243.56 104.46 244.17 104.31 244.68 104C245.19 103.7 245.58 103.27 245.87 102.72C246.15 102.17 246.29 101.52 246.29 100.77L246.27 94.24L246.32 94.24L246.32 93.24L248.47 93.24L248.47 93.41L248.2 93.41C247.96 93.41 247.75 93.49 247.58 93.64C247.41 93.8 247.32 94 247.32 94.24L247.32 94.24L247.34 100.7C247.34 101.59 247.15 102.36 246.77 103.02C246.4 103.68 245.86 104.19 245.15 104.56C244.45 104.93 243.61 105.11 242.65 105.11C241.56 105.12 240.63 104.94 239.86 104.58C239.08 104.22 238.5 103.71 238.1 103.06C237.69 102.4 237.49 101.63 237.49 100.74L237.48 94.26C237.47 94.02 237.39 93.82 237.22 93.66ZM239.51 94.26L239.51 93.26L240.66 93.26L240.66 93.42L240.39 93.42C240.14 93.42 239.94 93.5 239.76 93.66C239.59 93.81 239.51 94.01 239.51 94.26ZM246.27 93.24L246.27 94.24C246.27 94 246.18 93.8 246.01 93.64C245.84 93.49 245.63 93.41 245.39 93.41L245.12 93.41L245.12 93.25L246.27 93.24Z" />
			<path id="Path 64" class="shp0" d="M251 94.45L250.95 94.45C250.94 94.16 250.83 93.91 250.63 93.71C250.42 93.5 250.17 93.4 249.88 93.4L249.67 93.4L249.67 93.24L251 93.23L251 94.45ZM251.02 103.65L251.03 104.86L249.69 104.86L249.69 104.7L249.91 104.7C250.2 104.7 250.45 104.59 250.65 104.39C250.86 104.18 250.96 103.94 250.97 103.65L251.02 103.65ZM252.98 93.23L253.01 104.86L250.98 104.86L250.95 93.23L252.98 93.23ZM252.94 94.44L252.93 93.23L254.26 93.23L254.26 93.39L254.05 93.39C253.76 93.39 253.51 93.5 253.31 93.7C253.1 93.91 252.99 94.15 252.98 94.44L252.94 94.44ZM252.96 103.64L253.01 103.64C253.02 103.93 253.13 104.18 253.33 104.38C253.54 104.59 253.79 104.69 254.07 104.69L254.29 104.69L254.29 104.85L252.96 104.86L252.96 103.64Z" />
			<path id="Path 65" class="shp0" d="M255.3 92.91C255.41 92.95 255.58 93 255.8 93.04C256.03 93.08 256.29 93.12 256.56 93.15C256.84 93.19 257.1 93.2 257.33 93.2L255.3 93.39L255.3 92.91ZM265.61 93.18L265.61 93.81L255.3 93.84L255.3 93.21L265.61 93.18ZM256.91 93.78L256.91 93.83C256.48 93.85 256.13 93.99 255.87 94.25C255.6 94.52 255.47 94.87 255.47 95.3L255.47 95.52L255.3 95.53L255.3 93.79L256.91 93.78ZM259.52 103.63L259.52 104.84L258.19 104.84L258.19 104.68L258.4 104.68C258.69 104.68 258.94 104.57 259.15 104.37C259.35 104.16 259.46 103.92 259.47 103.63L259.52 103.63ZM261.48 93.26L261.5 104.84L259.47 104.84L259.44 93.26L261.48 93.26ZM261.45 103.62L261.5 103.62C261.51 103.91 261.62 104.16 261.83 104.36C262.03 104.57 262.28 104.67 262.57 104.67L262.79 104.67L262.79 104.83L261.45 104.84L261.45 103.62ZM265.61 92.88L265.61 93.37L263.58 93.19C263.82 93.19 264.08 93.17 264.35 93.14C264.62 93.1 264.87 93.06 265.11 93.02C265.34 92.97 265.51 92.93 265.61 92.88ZM265.61 93.76L265.61 95.51L265.45 95.49L265.45 95.28C265.45 94.85 265.31 94.5 265.04 94.23C264.78 93.97 264.43 93.83 263.99 93.82L263.99 93.77L265.61 93.76Z" />
			<path id="Path 66" class="shp0" d="M267.99 94.41L267.94 94.41C267.93 94.12 267.82 93.87 267.62 93.67C267.41 93.46 267.16 93.36 266.87 93.36L266.66 93.36L266.66 93.2L267.99 93.19L267.99 94.41ZM268.01 103.61L268.02 104.82L266.68 104.82L266.68 104.66L266.9 104.66C267.19 104.66 267.44 104.55 267.64 104.35C267.85 104.14 267.95 103.9 267.96 103.61L268.01 103.61ZM269.97 93.19L270 104.82L267.97 104.82L267.94 93.19L269.97 93.19ZM274.54 93.18L274.54 93.83L269.92 93.84L269.92 93.19L274.54 93.18ZM273.77 98.76L273.77 99.39L269.94 99.4L269.94 98.77L273.77 98.76ZM274.41 104.16L274.7 104.81L269.95 104.82L269.95 104.17L274.41 104.16ZM275.57 101.65L274.75 104.81L271.63 104.81L272.23 104.16C272.8 104.16 273.28 104.06 273.69 103.85C274.11 103.65 274.45 103.35 274.73 102.97C275 102.59 275.23 102.15 275.41 101.65L275.57 101.65ZM273.76 97.37L273.77 98.8L272.38 98.8L272.38 98.77C272.73 98.75 273.02 98.63 273.25 98.4C273.48 98.17 273.6 97.88 273.6 97.53L273.6 97.37L273.76 97.37ZM273.77 99.36L273.77 100.79L273.6 100.79L273.6 100.61C273.6 100.26 273.49 99.98 273.25 99.74C273.02 99.51 272.73 99.4 272.39 99.4L272.39 99.36L273.77 99.36ZM274.54 92.88L274.54 93.36L272.5 93.18C272.75 93.18 273.01 93.17 273.28 93.13C273.55 93.1 273.8 93.06 274.04 93.01C274.27 92.97 274.44 92.92 274.54 92.88ZM274.54 93.78L274.54 95.5L274.38 95.51L274.37 95.27C274.37 94.85 274.24 94.51 273.97 94.24C273.71 93.96 273.35 93.82 272.91 93.81L272.91 93.78L274.54 93.78Z" />
			<path id="Path 67" fill-rule="evenodd" class="shp0" d="M280.53 92.93C280.74 92.93 280.99 92.94 281.28 92.96C281.57 92.99 281.86 93.02 282.16 93.05C282.26 93.07 282.36 93.08 282.46 93.09L281.7 93.1L281.7 93.45L283.42 93.44L283.3 95.4L283.14 95.4C283.14 94.84 282.93 94.39 282.53 94.06C282.12 93.73 281.59 93.56 280.95 93.56C280.31 93.57 279.79 93.73 279.41 94.07C279.03 94.4 278.83 94.8 278.82 95.28C278.8 95.56 278.88 95.83 279.07 96.08C279.25 96.34 279.5 96.58 279.81 96.81L283.03 99.17C283.49 99.47 283.82 99.83 284.03 100.26C284.24 100.68 284.34 101.16 284.32 101.7C284.29 102.71 283.92 103.52 283.22 104.12C282.51 104.72 281.55 105.02 280.34 105.03C279.93 105.03 279.51 104.99 279.09 104.92C278.66 104.85 278.27 104.74 277.91 104.59C277.56 104.44 277.27 104.26 277.06 104.05C276.99 103.83 276.96 103.56 276.98 103.25C276.99 102.93 277.03 102.61 277.11 102.27C277.18 101.93 277.28 101.64 277.39 101.41L277.54 101.41C277.49 101.98 277.59 102.49 277.82 102.95C278.06 103.41 278.4 103.77 278.85 104.03C279.3 104.28 279.83 104.41 280.44 104.39C281.13 104.37 281.68 104.18 282.1 103.81C282.51 103.44 282.72 102.97 282.72 102.4C282.72 102.06 282.63 101.76 282.45 101.49C282.27 101.22 282 100.98 281.62 100.75L278.6 98.49C278.08 98.15 277.72 97.75 277.5 97.28C277.29 96.81 277.19 96.32 277.22 95.81C277.26 95.28 277.41 94.8 277.67 94.36C277.94 93.92 278.31 93.58 278.79 93.32C279.27 93.06 279.86 92.93 280.53 92.93ZM282.95 93.17C283.18 93.21 283.34 93.25 283.43 93.29L283.42 93.44L283.43 93.44L283.45 93.09L282.46 93.09C282.64 93.12 282.8 93.14 282.95 93.17Z" />
		</g>
		<g id="Group 69">
			<path id="Path 68" fill-rule="evenodd" class="shp0" d="M113.29 119.76C113.54 120.06 113.67 120.45 113.67 120.93C113.67 121.54 113.45 122.01 113 122.34C112.55 122.67 111.88 122.83 110.99 122.83L107.71 122.84L107.69 115.72L110.77 115.71C111.57 115.71 112.19 115.87 112.63 116.19C113.07 116.5 113.29 116.95 113.29 117.54C113.29 117.93 113.19 118.26 113 118.54C112.81 118.82 112.54 119.02 112.2 119.16C112.67 119.26 113.03 119.46 113.29 119.76ZM108.45 116.34L108.45 118.92L110.73 118.92C111.31 118.92 111.75 118.8 112.06 118.58C112.38 118.36 112.53 118.04 112.53 117.62C112.53 117.2 112.37 116.88 112.06 116.66C111.75 116.44 111.3 116.33 110.72 116.33L108.45 116.34ZM112.43 121.88C112.76 121.67 112.92 121.33 112.92 120.87C112.92 119.98 112.27 119.53 110.98 119.54L108.46 119.54L108.46 122.22L110.98 122.21C111.62 122.21 112.1 122.1 112.43 121.88Z" />
			<path id="Path 69" fill-rule="evenodd" class="shp0" d="M121.92 120.91L117.94 120.92L117.09 122.82L116.3 122.82L119.55 115.69L120.29 115.69L123.57 122.8L122.78 122.81L121.92 120.91ZM121.64 120.3L119.92 116.47L118.21 120.3L121.64 120.3Z" />
			<path id="Path 70" class="shp0" d="M127.88 122.39C127.32 122.08 126.87 121.65 126.55 121.09C126.22 120.54 126.06 119.92 126.06 119.24C126.05 118.55 126.21 117.93 126.54 117.38C126.86 116.83 127.3 116.39 127.88 116.08C128.45 115.77 129.08 115.61 129.79 115.61C130.32 115.61 130.81 115.69 131.26 115.87C131.71 116.04 132.09 116.3 132.41 116.64L131.93 117.12C131.37 116.56 130.66 116.28 129.82 116.28C129.25 116.28 128.74 116.41 128.27 116.67C127.81 116.93 127.45 117.28 127.19 117.73C126.93 118.18 126.8 118.68 126.8 119.24C126.8 119.79 126.93 120.29 127.2 120.74C127.46 121.19 127.82 121.54 128.29 121.8C128.75 122.05 129.26 122.18 129.83 122.18C130.68 122.18 131.39 121.89 131.94 121.32L132.42 121.8C132.11 122.14 131.72 122.4 131.27 122.58C130.82 122.76 130.33 122.85 129.8 122.85C129.09 122.85 128.45 122.7 127.88 122.39Z" />
			<path id="Path 71" class="shp0" d="M145.81 119.19L146.53 119.19L146.54 121.91C146.21 122.2 145.81 122.42 145.36 122.58C144.9 122.74 144.42 122.82 143.92 122.82C143.21 122.82 142.56 122.67 141.99 122.36C141.42 122.04 140.97 121.61 140.64 121.06C140.31 120.51 140.15 119.89 140.15 119.21C140.15 118.52 140.31 117.9 140.63 117.35C140.96 116.79 141.41 116.36 141.98 116.05C142.55 115.73 143.19 115.58 143.91 115.57C144.46 115.57 144.96 115.66 145.41 115.83C145.87 116 146.26 116.26 146.57 116.6L146.1 117.08C145.54 116.52 144.82 116.24 143.95 116.25C143.37 116.25 142.85 116.38 142.38 116.63C141.92 116.89 141.55 117.24 141.29 117.69C141.02 118.14 140.89 118.65 140.89 119.2C140.89 119.76 141.03 120.26 141.29 120.71C141.56 121.16 141.92 121.51 142.39 121.76C142.85 122.02 143.37 122.15 143.95 122.15C144.68 122.15 145.31 121.96 145.82 121.59L145.81 119.19Z" />
			<path id="Path 72" class="shp0" d="M150.7 115.62L151.45 115.62L151.47 122.74L150.72 122.74L150.7 115.62Z" />
			<path id="Path 73" fill-rule="evenodd" class="shp0" d="M160.31 120.82L156.33 120.83L155.48 122.73L154.7 122.73L157.94 115.6L158.69 115.6L161.97 122.72L161.18 122.72L160.31 120.82ZM160.04 120.21L158.31 116.39L156.61 120.22L160.04 120.21Z" />
			<path id="Path 74" class="shp0" d="M171.15 115.57L171.16 122.7L170.54 122.7L165.94 116.93L165.95 122.71L165.2 122.71L165.18 115.59L165.8 115.59L170.42 121.35L170.4 115.57L171.15 115.57Z" />
			<path id="Path 75" class="shp0" d="M180.55 119.11L181.28 119.11L181.29 121.83C180.95 122.12 180.56 122.34 180.1 122.5C179.65 122.66 179.17 122.74 178.66 122.74C177.95 122.74 177.31 122.59 176.73 122.28C176.16 121.96 175.71 121.53 175.39 120.98C175.06 120.43 174.89 119.81 174.89 119.13C174.89 118.44 175.05 117.82 175.38 117.27C175.7 116.71 176.15 116.28 176.72 115.97C177.29 115.65 177.94 115.5 178.66 115.49C179.2 115.49 179.7 115.58 180.16 115.75C180.61 115.92 181 116.18 181.31 116.52L180.84 117C180.28 116.44 179.56 116.16 178.69 116.17C178.11 116.17 177.59 116.3 177.12 116.55C176.66 116.81 176.29 117.16 176.03 117.61C175.77 118.06 175.63 118.57 175.64 119.12C175.64 119.68 175.77 120.18 176.04 120.63C176.3 121.08 176.67 121.43 177.13 121.69C177.59 121.94 178.12 122.07 178.69 122.07C179.43 122.07 180.05 121.88 180.56 121.51L180.55 119.11Z" />
		</g>
	</g>
</svg>