<svg xmlns="http://www.w3.org/2000/svg" xmlns:xlink="http://www.w3.org/1999/xlink" version="1.1" x="0px" y="0px" viewBox="0 0 64 80" style="enable-background:new 0 0 64 64;" xml:space="preserve"><g><path d="M60,15c-1.302,0-2.402,0.839-2.816,2H55V6c0-2.757-2.243-5-5-5H14c-2.757,0-5,2.243-5,5v11H6.816   C6.402,15.839,5.302,15,4,15c-1.654,0-3,1.346-3,3s1.346,3,3,3c1.302,0,2.402-0.839,2.816-2H9v11c0,1.111,0.375,2.152,1.013,3H1v14   h10.649l3.082,2.466c1.209,0.967,2.721,1.502,4.269,1.525V59c0,2.206,1.794,4,4,4h18c2.206,0,4-1.794,4-4v-8.184   c1.161-0.414,2-1.514,2-2.816c0-0.771-0.301-1.468-0.78-2c0.48-0.532,0.78-1.229,0.78-2s-0.301-1.468-0.78-2   c0.48-0.532,0.78-1.229,0.78-2c0-0.352-0.072-0.686-0.184-1H48c1.654,0,3-1.346,3-3c0-0.382-0.079-0.744-0.209-1.08   C53.171,34.538,55,32.486,55,30V19h2.184c0.414,1.161,1.514,2,2.816,2c1.654,0,3-1.346,3-3S61.654,15,60,15z M4,19   c-0.552,0-1-0.449-1-1s0.448-1,1-1s1,0.449,1,1S4.552,19,4,19z M11,6c0-1.654,1.346-3,3-3h36c1.654,0,3,1.346,3,3v11h-2V7   c0-1.103-0.897-2-2-2H15c-1.103,0-2,0.897-2,2v10h-2V6z M45,44c0,0.551-0.448,1-1,1h-4c-0.552,0-1-0.449-1-1s0.448-1,1-1h4   C44.552,43,45,43.449,45,44z M37,40c0,0.771,0.301,1.468,0.78,2c-0.48,0.532-0.78,1.229-0.78,2c0,0.352,0.072,0.686,0.184,1H35v-5   h-2v7h4.184C37.072,47.314,37,47.648,37,48s0.072,0.686,0.184,1H25V35h2c2.206,0,4-1.794,4-4h2v6h6v0.184   C37.839,37.598,37,38.698,37,40z M21,36.371c0.16-0.134,0.316-0.272,0.465-0.421L22.414,35H23v16h17h3v2H21V36.371z M39,35h-4v-4h4   V35z M29,29h-0.959H21v-2h22v10h-1h-1v-8H29z M40,19c1.654,0,3,1.346,3,3v3H21v-3c0-1.654,1.346-3,3-3H40z M19,22v7h-4V19h5.026   C19.391,19.838,19,20.87,19,22z M43.974,19H49v10h-4v-7C45,20.87,44.609,19.838,43.974,19z M45,17v-4h-2v4h-3h-7v-4h2v2h2v-4h-4V9   h-2v8h-7h-9V7h34v10H45z M13,19v10c0,0.86,0.548,1.588,1.311,1.87l-2.001,1.601C11.502,31.919,11,31.005,11,30V19H13z M11,45H3V35   h8V45z M15.981,47.904L13,45.519V34.481l2.981-2.385C16.864,31.389,17.974,31,19.104,31H20h8.041H29c0,1.103-0.897,2-2,2h-5.414   l-1.535,1.535C19.105,35.48,17.85,36,16.515,36H15v2h1.515c0.864,0,1.701-0.162,2.485-0.46v11.451   C17.906,48.968,16.837,48.589,15.981,47.904z M41,61H23c-1.103,0-2-0.897-2-2v-4h22v4C43,60.103,42.103,61,41,61z M44,49h-4   c-0.552,0-1-0.449-1-1s0.448-1,1-1h4c0.552,0,1,0.449,1,1S44.552,49,44,49z M45,40c0,0.551-0.448,1-1,1h-4c-0.552,0-1-0.449-1-1   s0.448-1,1-1h2h2C44.552,39,45,39.449,45,40z M48,37h-3v-2h3c0.552,0,1,0.449,1,1S48.552,37,48,37z M53,30c0,1.654-1.346,3-3,3h-2   h-3v-2h4c1.103,0,2-0.897,2-2V19h2V30z M60,19c-0.552,0-1-0.449-1-1s0.448-1,1-1s1,0.449,1,1S60.552,19,60,19z"/><rect x="19" y="9" width="2" height="2"/><rect x="39" y="9" width="2" height="6"/><rect x="27" y="13" width="2" height="2"/><rect x="27" y="9" width="2" height="2"/><polygon points="23,13 19,13 19,15 25,15 25,9 23,9  "/><rect x="29" y="57" width="6" height="2"/><circle cx="40" cy="22" r="1"/><circle cx="36" cy="22" r="1"/><rect x="27" y="21" width="6" height="2"/><polygon points="29,45 27,45 27,47 31,47 31,43 29,43  "/><polygon points="27,41 29,41 29,39 31,39 31,37 27,37  "/><circle cx="37" cy="33" r="1"/><rect x="43" y="9" width="2" height="2"/></g></svg>